<?xml version="1.0" encoding="UTF-8" standalone="no"?>
<svg
   width="32"
   height="32"
   fill="none"
   viewBox="0 0 32 32"
   version="1.1"
   id="svg13"
   sodipodi:docname="send.svg"
   inkscape:version="1.1.1 (3bf5ae0d25, 2021-09-20)"
   xmlns:inkscape="http://www.inkscape.org/namespaces/inkscape"
   xmlns:sodipodi="http://sodipodi.sourceforge.net/DTD/sodipodi-0.dtd"
   xmlns="http://www.w3.org/2000/svg"
   xmlns:svg="http://www.w3.org/2000/svg">
  <sodipodi:namedview
     id="namedview15"
     pagecolor="#505050"
     bordercolor="#ffffff"
     borderopacity="1"
     inkscape:pageshadow="0"
     inkscape:pageopacity="0"
     inkscape:pagecheckerboard="1"
     showgrid="false"
     inkscape:zoom="26"
     inkscape:cx="15.980769"
     inkscape:cy="16.019231"
     inkscape:window-width="1920"
     inkscape:window-height="1017"
     inkscape:window-x="-8"
     inkscape:window-y="-8"
     inkscape:window-maximized="1"
     inkscape:current-layer="g6" />
  <g
     clip-path="url(#clip0)"
     id="g6">
    <path
       fill="#000"
       fill-rule="evenodd"
       d="M31.2487 1.06868C31.5011 1.46419 31.4446 1.98202 31.1128 2.31379L14.1423 19.2844C13.8318 19.5948 13.3552 19.6664 12.9673 19.461L0.946443 13.0971C0.597368 12.9123 0.389775 12.5393 0.416647 12.1453C0.443519 11.7512 0.699819 11.4099 1.07075 11.2742L30.0621 0.66756C30.5028 0.506352 30.9962 0.673174 31.2487 1.06868ZM3.86759 12.3806L13.2503 17.3479L26.4965 4.10172L3.86759 12.3806Z"
       clip-rule="evenodd"
       id="path2"
       style="fill:#ffffff;fill-opacity:1" />
    <path
       fill="#000"
       fill-rule="evenodd"
       d="M30.9437 0.763737C31.3392 1.01617 31.506 1.50963 31.3448 1.95026L20.7382 30.9416C20.6025 31.3126 20.2612 31.5689 19.8671 31.5957C19.4731 31.6226 19.1001 31.415 18.9153 31.0659L12.5513 19.0451C12.3459 18.6571 12.4176 18.1806 12.728 17.8701L29.6986 0.899575C30.0304 0.567802 30.5482 0.511308 30.9437 0.763737ZM27.9107 5.51593L14.6645 18.7621L19.6318 28.1448L27.9107 5.51593Z"
       clip-rule="evenodd"
       id="path4"
       style="fill:#ffffff;fill-opacity:1" />
  </g>
  <defs
     id="defs11">
    <clipPath
       id="clip0">
      <rect
         width="32"
         height="32"
         fill="#fff"
         id="rect8" />
    </clipPath>
  </defs>
</svg>
