<?xml version="1.0" encoding="UTF-8" standalone="no"?>
<svg
   width="127.999"
   height="128"
   version="1.1"
   id="svg4"
   sodipodi:docname="facebook.svg"
   inkscape:version="1.1.1 (3bf5ae0d25, 2021-09-20)"
   xmlns:inkscape="http://www.inkscape.org/namespaces/inkscape"
   xmlns:sodipodi="http://sodipodi.sourceforge.net/DTD/sodipodi-0.dtd"
   xmlns="http://www.w3.org/2000/svg"
   xmlns:svg="http://www.w3.org/2000/svg">
  <defs
     id="defs8" />
  <sodipodi:namedview
     id="namedview6"
     pagecolor="#505050"
     bordercolor="#ffffff"
     borderopacity="1"
     inkscape:pageshadow="0"
     inkscape:pageopacity="0"
     inkscape:pagecheckerboard="1"
     showgrid="false"
     inkscape:zoom="6.5"
     inkscape:cx="63.923077"
     inkscape:cy="64.076923"
     inkscape:window-width="1920"
     inkscape:window-height="1017"
     inkscape:window-x="-8"
     inkscape:window-y="-8"
     inkscape:window-maximized="1"
     inkscape:current-layer="svg4" />
  <path
     fill="#231f20"
     d="M 64,0.14284615 C 28.78848,0.14284615 0.14384615,28.823064 0.14384615,64.075782 0.14384615,99.329642 28.78848,128.011 64,128.011 c 35.209244,0 63.85615,-28.681358 63.85615,-63.935218 C 127.85615,28.823064 99.209244,0.14284615 64,0.14284615 Z M 82.047544,40.502437 a 1.1400848,1.1414557 0 0 1 -1.140085,1.141457 l -7.258921,0.0045 c -4.789496,0 -5.66508,1.867423 -5.66508,5.545192 v 7.62949 h 12.449726 c 0.327203,0 0.639587,0.141541 0.855063,0.388095 0.215477,0.246556 0.315804,0.574153 0.275901,0.899469 l -1.772833,13.735136 a 1.1400848,1.1414557 0 0 1 -1.130964,0.995348 H 67.983458 v 34.105606 a 1.1400848,1.1414557 0 0 1 -1.140087,1.14146 H 52.678957 a 1.1400848,1.1414557 0 0 1 -1.140085,-1.14146 V 70.84119 H 40.827775 A 1.1400848,1.1414557 0 0 1 39.687689,69.699734 V 55.964598 a 1.1400848,1.1414557 0 0 1 1.140086,-1.141457 h 10.711097 v -8.988963 c 0,-11.905384 7.196216,-19.299734 18.782899,-19.299734 4.98103,0 9.382898,0.370973 10.735039,0.550183 a 1.1400848,1.1414557 0 0 1 0.990734,1.131181 z"
     id="path2"
     style="stroke-width:1.14077;fill:#0f0d0d;fill-opacity:1" />
</svg>
